<?xml version="1.0" encoding="UTF-8"?>
<svg version="1.1" xmlns="http://www.w3.org/2000/svg" width="161" height="201">
<path d="M0 0 C7.23685181 3.6265572 15.06710244 4.25203276 22.89599609 2.06689453 C25.48525797 1.19481154 28.04488037 0.26803323 30.6015625 -0.6953125 C40.76702816 -4.51700204 49.6723992 -7.07260762 60.296875 -3.25390625 C67.39557787 -0.00987537 71.39856278 5.72168815 74.4765625 12.7421875 C76.36870062 19.73811921 77.31610621 25.95883307 74.4765625 32.7421875 C73.8165625 32.4121875 73.1565625 32.0821875 72.4765625 31.7421875 C71.58081462 28.47910595 70.84513729 25.2185514 70.15234375 21.90820312 C68.83769951 16.12056201 66.93860675 11.70354712 62.15234375 7.890625 C56.1137506 5.29887845 47.70048136 5.66304758 41.4765625 7.7421875 C37.00320506 9.74648401 32.77357278 12.34881978 28.57421875 14.87304688 C21.23664804 19.23749356 14.92545657 20.65651987 6.4765625 19.7421875 C1.73548816 18.49335562 -2.40513337 16.40159158 -6.6171875 13.91796875 C-13.96745522 9.60406162 -19.92202471 6.82939125 -28.5234375 8.7421875 C-36.50477425 12.2281339 -40.47379811 19.87429395 -43.7109375 27.5625 C-55.37234659 59.71712066 -45.59445025 96.59905621 -32.5234375 126.7421875 C-29.11186949 133.94839258 -25.36619845 140.21602936 -19.5234375 145.7421875 C-18.9253125 146.3403125 -18.3271875 146.9384375 -17.7109375 147.5546875 C-14.35977096 149.37389219 -11.19147124 149.34641786 -7.5234375 148.7421875 C1.82904105 144.62709694 5.07850074 133.489551 8.9140625 124.7421875 C13.93924942 113.3330048 19.70038037 101.94744144 31.4765625 96.3046875 C39.69874819 94.76302768 44.96406833 95.94873873 52.1015625 100.3671875 C57.28044419 105.54606919 60.01246226 111.47128367 60.4765625 118.7421875 C59.4865625 119.0721875 58.4965625 119.4021875 57.4765625 119.7421875 C57.17363281 119.13890625 56.87070313 118.535625 56.55859375 117.9140625 C53.21161369 111.20844639 53.21161369 111.20844639 47.4765625 106.7421875 C41.59816077 106.11265074 35.78796406 105.84673596 30.4765625 108.7421875 C29.2882216 110.46396219 29.2882216 110.46396219 28.4765625 112.7421875 C27.92742187 113.80566406 27.37828125 114.86914062 26.8125 115.96484375 C23.0738365 123.25845974 19.6383822 130.59097488 16.5390625 138.1796875 C13.88987232 144.6229176 11.02788443 150.88514818 7.7890625 157.0546875 C7.25454468 158.08517212 7.25454468 158.08517212 6.70922852 159.13647461 C3.31377865 165.46225496 -0.38996629 171.41009114 -7.5234375 173.7421875 C-14.8045104 174.05647842 -19.15537488 171.71249796 -24.57421875 166.93359375 C-48.02591155 144.85902971 -62.92936541 107.6130554 -64.63130188 75.72094727 C-64.68647872 73.63513307 -64.7141555 71.55135045 -64.7265625 69.46484375 C-64.73226257 68.69522812 -64.73796265 67.92561249 -64.74383545 67.13267517 C-64.75322382 65.5099319 -64.75979468 63.88717009 -64.76367188 62.2644043 C-64.77328966 59.8419238 -64.80433504 57.42032591 -64.8359375 54.99804688 C-64.94174615 39.47898397 -63.0328315 25.00456121 -56.5234375 10.7421875 C-55.95302734 9.47761719 -55.95302734 9.47761719 -55.37109375 8.1875 C-51.45383983 0.35299217 -45.23061649 -5.33336859 -37.07421875 -8.6015625 C-23.08373117 -12.20095287 -12.0240225 -6.19018262 0 0 Z " fill="#06839D" transform="translate(65.5234375,25.2578125)"/>
<path d="M0 0 C2.12140923 1.06483462 4.23262614 2.1479076 6.34301758 3.234375 C13.47628294 6.80902259 21.65076437 7.2340505 29.43676758 5.33984375 C30.98995941 4.80380953 32.54075167 4.26077376 34.08911133 3.7109375 C39.81711342 2.17035897 45.91720368 2.20478772 51.81958008 1.9765625 C51.15958008 3.6265625 50.49958008 5.2765625 49.81958008 6.9765625 C49.15958008 6.9765625 48.49958008 6.9765625 47.81958008 6.9765625 C47.81958008 7.6365625 47.81958008 8.2965625 47.81958008 8.9765625 C45.63335758 10.08331869 43.4456706 11.18700628 41.25708008 12.2890625 C40.64799805 12.59779297 40.03891602 12.90652344 39.41137695 13.22460938 C28.01027892 18.95532003 18.70207552 21.1303232 6.13208008 17.1640625 C2.49940387 15.88107401 0.4935275 14.6648091 -2.18041992 11.9765625 C-8.80042575 9.11925981 -15.76519184 7.71506876 -22.80541992 9.7265625 C-29.34644903 13.03277196 -29.34644903 13.03277196 -33.18041992 18.9765625 C-33.84041992 18.9765625 -34.50041992 18.9765625 -35.18041992 18.9765625 C-35.42791992 19.7603125 -35.67541992 20.5440625 -35.93041992 21.3515625 C-36.90740501 24.18481925 -37.96795139 26.90149442 -39.11791992 29.6640625 C-42.71859751 38.6666403 -44.7016913 47.01191879 -44.55541992 56.7265625 C-44.54345581 58.196698 -44.54345581 58.196698 -44.53125 59.6965332 C-44.21240631 76.5871768 -42.23238162 94.22165826 -35.92260742 109.99609375 C-35.08454167 112.23240605 -34.44808069 114.48920345 -33.80541992 116.7890625 C-32.39849761 121.64933958 -30.38399405 126.08722911 -28.16870117 130.62890625 C-27.18041992 132.9765625 -27.18041992 132.9765625 -27.18041992 135.9765625 C-26.52041992 136.3065625 -25.86041992 136.6365625 -25.18041992 136.9765625 C-22.88408168 140.42106987 -22.64025507 142.91468533 -22.18041992 146.9765625 C-23.38698242 147.4096875 -23.38698242 147.4096875 -24.61791992 147.8515625 C-27.31306672 148.70918818 -27.31306672 148.70918818 -28.18041992 150.9765625 C-33.77997206 148.57675444 -35.6765442 144.21615429 -38.18041992 138.9765625 C-38.70635742 137.64625 -38.70635742 137.64625 -39.24291992 136.2890625 C-40.14068796 133.81672475 -40.14068796 133.81672475 -42.05541992 131.3515625 C-46.20130754 124.76691746 -48.33706508 117.37835053 -49.68823242 109.75390625 C-50.08888286 107.73960088 -50.08888286 107.73960088 -52.18041992 105.9765625 C-56.5352576 91.00482127 -56.56783492 75.68195568 -56.55541992 60.2265625 C-56.55705139 59.26171936 -56.55868286 58.29687622 -56.56036377 57.30279541 C-56.55555754 32.13471525 -56.55555754 32.13471525 -51.25073242 21.25 C-49.69199772 17.93911095 -48.51534035 14.49448283 -47.30541992 11.04296875 C-45.93789122 8.53108443 -44.73803328 8.11441854 -42.18041992 6.9765625 C-40.93327589 4.56704227 -40.93327589 4.56704227 -40.18041992 1.9765625 C-39.18041992 -1.0234375 -39.18041992 -1.0234375 -37.43823242 -2.15625 C-36.38249023 -2.64738281 -36.38249023 -2.64738281 -35.30541992 -3.1484375 C-34.60674805 -3.48101563 -33.90807617 -3.81359375 -33.18823242 -4.15625 C-21.59130403 -9.16504008 -10.56941803 -5.23550757 0 0 Z " fill="#0A89A2" transform="translate(59.180419921875,22.0234375)"/>
<path d="M0 0 C9.62234168 12.40775637 10.57448322 25.43475956 8.94921875 40.515625 C6.94092701 55.83010259 1.1307237 73.56500225 -9.625 85.0625 C-10.285 85.0625 -10.945 85.0625 -11.625 85.0625 C-11.45484375 84.50304687 -11.2846875 83.94359375 -11.109375 83.3671875 C-10.27337156 80.60126122 -9.44799457 77.83232627 -8.625 75.0625 C-8.27695313 73.89589844 -7.92890625 72.72929687 -7.5703125 71.52734375 C-7.21710938 70.32207031 -6.86390625 69.11679688 -6.5 67.875 C-6.16742188 66.74707031 -5.83484375 65.61914062 -5.4921875 64.45703125 C-1.8845501 50.33524341 -0.8315174 31.34492977 -7.625 18.0625 C-8.09292969 17.10537109 -8.09292969 17.10537109 -8.5703125 16.12890625 C-10.78919237 12.24120497 -13.42669356 10.43502326 -17.625 9.0625 C-24.3760575 8.94610246 -29.20898162 11.62350277 -35.0859375 14.78515625 C-37.625 16.0625 -37.625 16.0625 -39.625 16.0625 C-39.625 16.7225 -39.625 17.3825 -39.625 18.0625 C-38.89667969 18.35253906 -38.16835937 18.64257812 -37.41796875 18.94140625 C-35.70853846 19.62756918 -34.00201986 20.32111528 -32.30078125 21.02734375 C-26.49936037 23.41503598 -20.66380805 25.36649434 -14.625 27.0625 C-14.625 28.0525 -14.625 29.0425 -14.625 30.0625 C-31.69634692 30.60285916 -42.53240438 27.90628321 -56.625 18.0625 C-57.2329541 17.64000977 -57.8409082 17.21751953 -58.46728516 16.78222656 C-59.07233887 16.36166992 -59.67739258 15.94111328 -60.30078125 15.5078125 C-60.89068848 15.09805176 -61.4805957 14.68829102 -62.08837891 14.26611328 C-63.72511117 13.12350636 -65.35305708 11.96834356 -66.98046875 10.8125 C-70.90268497 8.21700094 -73.88538543 7.8815466 -78.5 7.8125 C-79.52867188 7.78671875 -80.55734375 7.7609375 -81.6171875 7.734375 C-85.09419861 8.1136853 -86.87164734 8.92578361 -89.625 11.0625 C-90.95169711 13.01264858 -90.95169711 13.01264858 -91.75 15.25 C-92.06710938 16.03632812 -92.38421875 16.82265625 -92.7109375 17.6328125 C-93.01257813 18.43460938 -93.31421875 19.23640625 -93.625 20.0625 C-93.92664063 20.84367187 -94.22828125 21.62484375 -94.5390625 22.4296875 C-95.25156406 24.30083645 -95.9407576 26.18083339 -96.625 28.0625 C-99.04316448 25.64433552 -98.97288063 24.89423174 -99.0625 21.5625 C-98.89489297 14.73990814 -96.59486678 9.01407192 -91.72265625 4.171875 C-86.14731647 -0.23703093 -80.65956248 -2.50362205 -73.4296875 -2.40625 C-69.69322239 -1.78177115 -66.36075925 -0.36356723 -62.875 1.0625 C-53.79692637 4.6571311 -46.35304054 6.0902241 -36.9921875 2.29296875 C-33.81408026 0.91729415 -30.70047633 -0.5608538 -27.59375 -2.08984375 C-18.26007022 -6.62113679 -8.38515718 -6.18904458 0 0 Z " fill="#343748" transform="translate(138.625,59.9375)"/>
<path d="M0 0 C1.4606285 2.64738916 2 3.89448334 2 7 C1 9.1875 1 9.1875 0 11 C-1.33333333 10.33333333 -2.66666667 9.66666667 -4 9 C-3.505 11.97 -3.505 11.97 -3 15 C-4.28913487 15.67154933 -5.58140204 16.33708859 -6.875 17 C-7.59429687 17.37125 -8.31359375 17.7425 -9.0546875 18.125 C-11 19 -11 19 -13 19 C-13 19.66 -13 20.32 -13 21 C-12.27167969 21.29003906 -11.54335937 21.58007812 -10.79296875 21.87890625 C-9.08353846 22.56506918 -7.37701986 23.25861528 -5.67578125 23.96484375 C0.12563963 26.35253598 5.96119195 28.30399434 12 30 C12 30.99 12 31.98 12 33 C-5.07134692 33.54035916 -15.90740438 30.84378321 -30 21 C-30.6079541 20.57750977 -31.2159082 20.15501953 -31.84228516 19.71972656 C-32.44733887 19.29916992 -33.05239258 18.87861328 -33.67578125 18.4453125 C-34.26568848 18.03555176 -34.8555957 17.62579102 -35.46337891 17.20361328 C-37.10011117 16.06100636 -38.72805708 14.90584356 -40.35546875 13.75 C-44.27768497 11.15450094 -47.26038543 10.8190466 -51.875 10.75 C-52.90367188 10.72421875 -53.93234375 10.6984375 -54.9921875 10.671875 C-58.46919861 11.0511853 -60.24664734 11.86328361 -63 14 C-64.32669711 15.95014858 -64.32669711 15.95014858 -65.125 18.1875 C-65.44210938 18.97382812 -65.75921875 19.76015625 -66.0859375 20.5703125 C-66.38757813 21.37210938 -66.68921875 22.17390625 -67 23 C-67.30164063 23.78117187 -67.60328125 24.56234375 -67.9140625 25.3671875 C-68.62656406 27.23833645 -69.3157576 29.11833339 -70 31 C-72.41816448 28.58183552 -72.34788063 27.83173174 -72.4375 24.5 C-72.26989297 17.67740814 -69.96986678 11.95157192 -65.09765625 7.109375 C-59.52231647 2.70046907 -54.03456248 0.43387795 -46.8046875 0.53125 C-43.06840936 1.1556976 -39.73535136 2.573183 -36.25 4 C-27.52137961 7.47623266 -19.88320528 9.1101017 -10.859375 5.41796875 C-7.15056821 3.76956234 -3.56718141 1.93407346 0 0 Z " fill="#343848" transform="translate(112,57)"/>
<path d="M0 0 C7.13326537 3.57464759 15.30774679 3.9996755 23.09375 2.10546875 C24.64694183 1.56943453 26.19773409 1.02639876 27.74609375 0.4765625 C33.47409584 -1.06401603 39.5741861 -1.02958728 45.4765625 -1.2578125 C44.8165625 0.3921875 44.1565625 2.0421875 43.4765625 3.7421875 C42.8165625 3.7421875 42.1565625 3.7421875 41.4765625 3.7421875 C41.4765625 4.4021875 41.4765625 5.0621875 41.4765625 5.7421875 C39.29034 6.84894369 37.10265302 7.95263128 34.9140625 9.0546875 C34.30498047 9.36341797 33.69589844 9.67214844 33.06835938 9.99023438 C21.66726134 15.72094503 12.35905794 17.8959482 -0.2109375 13.9296875 C-3.84699462 12.64550494 -5.84169849 11.42392651 -8.5234375 8.7421875 C-13.96256832 6.51708853 -19.70147178 5.37500986 -25.5234375 4.7421875 C-24.5234375 2.7421875 -24.5234375 2.7421875 -21.5234375 0.7421875 C-21.2998307 -2.1832769 -21.2998307 -2.1832769 -22.5234375 -4.2578125 C-24.64920532 -4.72432457 -24.64920532 -4.72432457 -27.0859375 -4.8828125 C-27.91222656 -4.95757813 -28.73851562 -5.03234375 -29.58984375 -5.109375 C-30.22792969 -5.15835937 -30.86601563 -5.20734375 -31.5234375 -5.2578125 C-31.5234375 -4.5978125 -31.5234375 -3.9378125 -31.5234375 -3.2578125 C-34.01408638 -2.57073695 -35.90230042 -2.2578125 -38.5234375 -2.2578125 C-39.5134375 -1.7628125 -39.5134375 -1.7628125 -40.5234375 -1.2578125 C-42.6484375 -1.6953125 -42.6484375 -1.6953125 -44.5234375 -2.2578125 C-43.5234375 -5.2578125 -43.5234375 -5.2578125 -41.9140625 -6.42578125 C-26.67502209 -13.68379137 -13.66406893 -7.03450797 0 0 Z " fill="#158CA5" transform="translate(65.5234375,25.2578125)"/>
<path d="M0 0 C7.1738417 7.1738417 10.09720122 15.35942083 10.4375 25.4375 C10.06595292 28.07289209 9.47149269 29.96740635 8.4375 32.4375 C7.7775 32.1075 7.1175 31.7775 6.4375 31.4375 C5.54175212 28.17441845 4.80607479 24.9138639 4.11328125 21.60351562 C2.79863701 15.81587451 0.89954425 11.39885962 -3.88671875 7.5859375 C-9.9253119 4.99419095 -18.33858114 5.35836008 -24.5625 7.4375 C-29.03585744 9.44179651 -33.26548972 12.04413228 -37.46484375 14.56835938 C-44.79198145 18.92660043 -51.1223637 20.36890469 -59.5625 19.4375 C-66.00784188 17.65781605 -75.5869608 14.19799739 -79.8359375 8.828125 C-82.60951766 6.59420071 -85.82791221 6.86183293 -89.25 6.75 C-90.3028418 6.69875977 -90.3028418 6.69875977 -91.37695312 6.64648438 C-93.10491387 6.56420053 -94.83368072 6.4991676 -96.5625 6.4375 C-90.7402353 3.21858273 -85.41907368 4.03832844 -79.25 5.8125 C-76.20018052 6.76048157 -74.26373692 7.63667539 -71.5625 9.4375 C-71.5625 10.0975 -71.5625 10.7575 -71.5625 11.4375 C-61.87722808 14.41758367 -51.7793948 16.33417977 -41.875 13.3125 C-40.781875 12.69375 -39.68875 12.075 -38.5625 11.4375 C-36.64835407 10.37046546 -34.73147998 9.30831621 -32.8125 8.25 C-31.88953125 7.72019531 -30.9665625 7.19039062 -30.015625 6.64453125 C-27.5625 5.4375 -27.5625 5.4375 -24.5625 5.4375 C-24.5625 4.7775 -24.5625 4.1175 -24.5625 3.4375 C-23.9025 3.4375 -23.2425 3.4375 -22.5625 3.4375 C-22.2325 2.1175 -21.9025 0.7975 -21.5625 -0.5625 C-26.1825 -0.2325 -30.8025 0.0975 -35.5625 0.4375 C-24.62409193 -7.76630605 -11.32119414 -6.90316716 0 0 Z " fill="#2E8196" transform="translate(131.5625,25.5625)"/>
<path d="M0 0 C0.71542969 -0.01160156 1.43085937 -0.02320312 2.16796875 -0.03515625 C7.3768377 -0.00594764 7.3768377 -0.00594764 9.8671875 1.8984375 C10.19976562 2.38570312 10.53234375 2.87296875 10.875 3.375 C10.33359375 3.21902344 9.7921875 3.06304687 9.234375 2.90234375 C3.78138891 1.68354719 -2.24374929 1.16410892 -7.4765625 3.36328125 C-17.41253276 10.17268172 -21.60172245 22.56820256 -23.8125 33.8984375 C-28.92524784 66.63422576 -20.4205124 107.19656486 -1.125 134.375 C0.50119839 136.08117536 2.16258371 137.75537474 3.875 139.375 C4.473125 139.973125 5.07125 140.57125 5.6875 141.1875 C9.03866654 143.00670469 12.20696626 142.97923036 15.875 142.375 C24.7031165 138.49062874 28.41337383 127.80507784 31.875 119.375 C33.06271723 122.80443519 32.67726223 124.75284675 31.4375 128.125 C31.00630859 129.32382812 31.00630859 129.32382812 30.56640625 130.546875 C30.33824219 131.15015625 30.11007813 131.7534375 29.875 132.375 C29.215 132.375 28.555 132.375 27.875 132.375 C27.813125 133.24125 27.75125 134.1075 27.6875 135 C26.43719673 140.19356745 23.53946148 143.18609894 19.25 146.25 C14.63671679 148.43523941 9.56674458 146.84530024 4.875 145.375 C1.49639502 143.17156197 -0.96425006 140.78671042 -3.125 137.375 C-3.125 136.715 -3.125 136.055 -3.125 135.375 C-4.115 135.045 -5.105 134.715 -6.125 134.375 C-7.125 132.1875 -7.125 132.1875 -8.125 129.375 C-9.10787008 127.36652635 -10.10877342 125.36680409 -11.125 123.375 C-16.125 113.575 -16.125 113.575 -16.125 108.375 C-16.785 108.045 -17.445 107.715 -18.125 107.375 C-18.87109375 104.93359375 -18.87109375 104.93359375 -19.5625 101.8125 C-20.35417617 98.26126691 -21.26615523 94.93177486 -22.62109375 91.5625 C-24.34231064 87.1014086 -25.07974105 82.65597065 -25.75 77.9375 C-25.87117188 77.14279297 -25.99234375 76.34808594 -26.1171875 75.52929688 C-29.55304187 52.58003047 -30.6615793 29.91501348 -18.125 9.375 C-17.465 9.045 -16.805 8.715 -16.125 8.375 C-15.691875 7.59125 -15.25875 6.8075 -14.8125 6 C-11.13997501 0.28718334 -6.3818476 -0.10462045 0 0 Z " fill="#1C6E80" transform="translate(42.125,31.625)"/>
<path d="M0 0 C5.17888169 5.17888169 7.91089976 11.10409617 8.375 18.375 C7.385 18.705 6.395 19.035 5.375 19.375 C5.07207031 18.77171875 4.76914063 18.1684375 4.45703125 17.546875 C1.11005119 10.84125889 1.11005119 10.84125889 -4.625 6.375 C-10.50340173 5.74546324 -16.31359844 5.47954846 -21.625 8.375 C-22.81190316 10.08825679 -22.81190316 10.08825679 -23.625 12.375 C-24.46611328 14.02242187 -24.46611328 14.02242187 -25.32421875 15.703125 C-30.10987329 25.11974625 -34.48935469 34.65623353 -38.625 44.375 C-38.955 44.375 -39.285 44.375 -39.625 44.375 C-39.94855724 39.53602173 -39.10567078 36.68349262 -36.8125 32.4375 C-36.2659375 31.39207031 -35.719375 30.34664062 -35.15625 29.26953125 C-34.6509375 28.31433594 -34.145625 27.35914063 -33.625 26.375 C-31.11401442 21.38156278 -30.11113009 16.91688302 -29.625 11.375 C-28.635 11.375 -27.645 11.375 -26.625 11.375 C-26.625 10.055 -26.625 8.735 -26.625 7.375 C-28.96648231 7.25286106 -28.96648231 7.25286106 -31.625 8.375 C-34.59965787 11.93071349 -36.54748211 16.02960342 -38.25 20.3125 C-38.70375 21.323125 -39.1575 22.33375 -39.625 23.375 C-40.615 23.705 -41.605 24.035 -42.625 24.375 C-39.39541008 13.56642269 -32.91946268 3.85506463 -23.625 -2.625 C-15.15289471 -6.77460259 -7.67157742 -4.74907174 0 0 Z " fill="#118095" transform="translate(117.625,125.625)"/>
<path d="M0 0 C0.33 0.66 0.66 1.32 1 2 C-0.35300839 4.70601677 -1.64872877 6.69405409 -3.9375 8.6875 C-7.13270996 12.27000814 -8.36973105 16.53536304 -10 21 C-10.27972656 21.68578125 -10.55945313 22.3715625 -10.84765625 23.078125 C-14.22066532 31.41742381 -15.310349 39.84693839 -15.3359375 48.79296875 C-15.34413513 49.69446152 -15.35233276 50.59595428 -15.36077881 51.52476501 C-15.37972711 54.41250232 -15.3798615 57.29971011 -15.375 60.1875 C-15.37617828 61.65808868 -15.37617828 61.65808868 -15.37738037 63.15838623 C-16.64306981 87.02670305 -16.64306981 87.02670305 -9 108 C-8.47765608 110.02623519 -8.02987161 112.07206279 -7.625 114.125 C-6.19752558 120.6567769 -3.9926869 125.70773468 -0.5625 131.375 C1.40703071 134.6838116 3.09002678 138.10640625 4.79296875 141.55859375 C5.7775479 143.55005643 6.79090714 145.52726897 7.8125 147.5 C9 150 9 150 9 152 C9.66 152 10.32 152 11 152 C12.44526736 153.73548169 13.8087222 155.53975963 15.125 157.375 C16.21167969 158.87160156 16.21167969 158.87160156 17.3203125 160.3984375 C19 163 19 163 19 165 C19.66 165 20.32 165 21 165 C21 165.66 21 166.32 21 167 C21.99 167.33 22.98 167.66 24 168 C24 168.66 24 169.32 24 170 C25.32 170.33 26.64 170.66 28 171 C28 171.66 28 172.32 28 173 C32.05607995 173.98329211 35.83062202 174.23600253 40 174 C40.66 173.34 41.32 172.68 42 172 C42.99 172 43.98 172 45 172 C45 171.34 45 170.68 45 170 C45.66 170 46.32 170 47 170 C47.2475 169.17113281 47.495 168.34226563 47.75 167.48828125 C49.1782628 163.50253539 50.99656931 159.9076385 53 156.1875 C53.35578125 155.50751953 53.7115625 154.82753906 54.078125 154.12695312 C56.75157313 149.12421344 56.75157313 149.12421344 59 148 C58.03780947 152.30609958 56.21080585 155.94617945 54.25 159.875 C53.91484375 160.56980469 53.5796875 161.26460937 53.234375 161.98046875 C50.45365029 167.57351732 47.44294457 172.27883451 42.25 175.9375 C36.75511654 177.73390421 32.14091391 177.07045695 27 174.5 C0.3427204 152.28560034 -14.61012923 114.95928798 -18 81 C-18.14726724 78.24040063 -18.18669415 75.48586157 -18.203125 72.72265625 C-18.20882507 71.95304062 -18.21452515 71.18342499 -18.22039795 70.39048767 C-18.22978632 68.7677444 -18.23635718 67.14498259 -18.24023438 65.5222168 C-18.24985216 63.0997363 -18.28089754 60.67813841 -18.3125 58.25585938 C-18.43876567 39.73634396 -16.15864076 17.99293787 -3.57421875 3.33984375 C-2.42769052 2.18039689 -1.22064505 1.08114276 0 0 Z " fill="#186D81" transform="translate(19,22)"/>
<path d="M0 0 C5.03985731 0.44469329 7.37634988 2.71343362 11 6 C10.73242331 9.21092031 10.25690343 10.71823495 8.0625 13.125 C-1.90926262 19.23016079 -13.72681185 19.16504972 -25.0625 19.0625 C-26.02349609 19.05798828 -26.98449219 19.05347656 -27.97460938 19.04882812 C-30.31647422 19.03717706 -32.65820181 19.02082025 -35 19 C-35 18.01 -35 17.02 -35 16 C-34.3608667 15.93006836 -33.7217334 15.86013672 -33.06323242 15.78808594 C-16.58320272 14.20800551 -16.58320272 14.20800551 -1 9 C-0.45627049 5.94152152 0 3.11227195 0 0 Z " fill="#3D3948" transform="translate(139,138)"/>
<path d="M0 0 C2.48735103 2.19629556 2.96186628 2.69754729 3.3984375 6.16015625 C3.27052327 27.45787487 -0.82263177 51.77591672 -16 68 C-16.66 68 -17.32 68 -18 68 C-17.82984375 67.44054687 -17.6596875 66.88109375 -17.484375 66.3046875 C-16.64837156 63.53876122 -15.82299457 60.76982627 -15 58 C-14.47792969 56.25009766 -14.47792969 56.25009766 -13.9453125 54.46484375 C-13.59210938 53.25957031 -13.23890625 52.05429688 -12.875 50.8125 C-12.37613281 49.12060547 -12.37613281 49.12060547 -11.8671875 47.39453125 C-9.75479194 39.12573962 -9.81672628 30.97792427 -9.8125 22.5 C-9.80025391 21.20707031 -9.78800781 19.91414063 -9.77539062 18.58203125 C-9.76580299 12.36285098 -9.77222637 6.84680509 -12 1 C-11.34 1 -10.68 1 -10 1 C-4.59232426 16.99093814 -6.04981642 32.46583483 -8 49 C-7.02012484 46.33891771 -6.04791651 43.67542807 -5.0859375 41.0078125 C-4.4357165 39.20684067 -3.77709554 37.4088186 -3.1015625 35.6171875 C1.04729643 24.15647817 0.11098973 12.01155483 0 0 Z " fill="#2B2939" transform="translate(145,77)"/>
<path d="M0 0 C3.07099684 0.34122187 4.8342915 0.88225975 7.375 2.6875 C9 5 9 5 9.3125 8 C7.53354421 12.06618466 5.3294982 12.66927095 1.32421875 14.23828125 C-4.62466967 16.18791695 -10.33351102 16.36498082 -16.5625 16.625 C-18.14321289 16.70234375 -18.14321289 16.70234375 -19.75585938 16.78125 C-20.76583984 16.82507813 -21.77582031 16.86890625 -22.81640625 16.9140625 C-24.20001343 16.9752124 -24.20001343 16.9752124 -25.61157227 17.03759766 C-28 17 -28 17 -31 16 C-31 15.34 -31 14.68 -31 14 C-30.22398438 13.89042969 -29.44796875 13.78085938 -28.6484375 13.66796875 C-14.17428269 12.20470683 -14.17428269 12.20470683 -1 7 C-0.26393501 3.43230448 -0.26393501 3.43230448 0 0 Z " fill="#322E3E" transform="translate(137,157)"/>
<path d="M0 0 C9.20976739 4.61523175 19.76882095 3.42018517 29.4765625 0.7421875 C29.9715625 1.7321875 29.9715625 1.7321875 30.4765625 2.7421875 C24.82031001 4.33360769 19.66164039 5.1592211 13.7890625 5.1796875 C12.62528076 5.18548828 12.62528076 5.18548828 11.43798828 5.19140625 C4.03692046 5.04512202 -1.87261489 3.03234709 -8.5234375 -0.2578125 C-8.5234375 -0.9178125 -8.5234375 -1.5778125 -8.5234375 -2.2578125 C-9.09578125 -2.38027344 -9.668125 -2.50273437 -10.2578125 -2.62890625 C-12.62296941 -3.28544118 -14.59550547 -4.19504762 -16.7734375 -5.3203125 C-17.47984375 -5.68253906 -18.18625 -6.04476563 -18.9140625 -6.41796875 C-19.44515625 -6.69511719 -19.97625 -6.97226562 -20.5234375 -7.2578125 C-20.5234375 -6.5978125 -20.5234375 -5.9378125 -20.5234375 -5.2578125 C-24.1534375 -5.2578125 -27.7834375 -5.2578125 -31.5234375 -5.2578125 C-31.5234375 -4.5978125 -31.5234375 -3.9378125 -31.5234375 -3.2578125 C-34.01408638 -2.57073695 -35.90230042 -2.2578125 -38.5234375 -2.2578125 C-39.5134375 -1.7628125 -39.5134375 -1.7628125 -40.5234375 -1.2578125 C-42.6484375 -1.6953125 -42.6484375 -1.6953125 -44.5234375 -2.2578125 C-43.5234375 -5.2578125 -43.5234375 -5.2578125 -41.9140625 -6.42578125 C-26.67502209 -13.68379137 -13.66406893 -7.03450797 0 0 Z " fill="#2D7F93" transform="translate(65.5234375,25.2578125)"/>
<path d="M0 0 C-0.66 1.32 -1.32 2.64 -2 4 C-2.66 4 -3.32 4 -4 4 C-4 4.66 -4 5.32 -4 6 C-5.62249941 6.83819158 -7.24808497 7.6704116 -8.875 8.5 C-9.77992187 8.9640625 -10.68484375 9.428125 -11.6171875 9.90625 C-14 11 -14 11 -16 11 C-16 9.68 -16 8.36 -16 7 C-17.9914056 6.61866701 -19.99279077 6.28674418 -22 6 C-22.33 6.33 -22.66 6.66 -23 7 C-25.86909727 7.18211752 -28.69101094 7.2783968 -31.5625 7.3125 C-32.34947266 7.34150391 -33.13644531 7.37050781 -33.94726562 7.40039062 C-40.00600484 7.46532353 -43.76496525 6.04027791 -49 3 C-46 2 -46 2 -43.8671875 2.921875 C-39.91325781 4.40863875 -36.31215645 4.29125277 -32.125 4.25 C-30.95904297 4.26160156 -30.95904297 4.26160156 -29.76953125 4.2734375 C-24.82147202 4.25680537 -20.65453281 3.72570146 -16 2 C-15.67 1.34 -15.34 0.68 -15 0 C-12.3828125 -0.44921875 -12.3828125 -0.44921875 -9.125 -0.6875 C-8.05507812 -0.77386719 -6.98515625 -0.86023438 -5.8828125 -0.94921875 C-3 -1 -3 -1 0 0 Z " fill="#1F889F" transform="translate(111,25)"/>
<path d="M0 0 C8 2.66666667 16 5.33333333 24 8 C24 8.99 24 9.98 24 11 C14.19293733 11.31042285 5.36818258 11.39925415 -4 8 C-2 6 -2 6 0 5 C-0.66 4.34 -1.32 3.68 -2 3 C-1.34 2.34 -0.68 1.68 0 1 C0 0.67 0 0.34 0 0 Z " fill="#3D3C4D" transform="translate(100,79)"/>
<path d="M0 0 C1 3 1 3 0.36669922 4.8059082 C0.01623535 5.46421631 -0.33422852 6.12252441 -0.6953125 6.80078125 C-1.27539062 7.89616211 -1.27539062 7.89616211 -1.8671875 9.01367188 C-2.48980469 10.1515918 -2.48980469 10.1515918 -3.125 11.3125 C-3.516875 12.05951172 -3.90875 12.80652344 -4.3125 13.57617188 C-7.8562125 20.17141458 -11.52706636 26.55692554 -19 29 C-26.29577149 29.31492539 -30.69916323 26.97322563 -36.0859375 22.12109375 C-41.8015496 16.66882896 -46.79641579 10.70053614 -51 4 C-51 3.34 -51 2.68 -51 2 C-50.34 2 -49.68 2 -49 2 C-49 2.66 -49 3.32 -49 4 C-48.34 4 -47.68 4 -47 4 C-45.55473264 5.73548169 -44.1912778 7.53975963 -42.875 9.375 C-42.15054688 10.37273437 -41.42609375 11.37046875 -40.6796875 12.3984375 C-39 15 -39 15 -39 17 C-38.34 17 -37.68 17 -37 17 C-37 17.66 -37 18.32 -37 19 C-36.01 19.33 -35.02 19.66 -34 20 C-34 20.66 -34 21.32 -34 22 C-32.68 22.33 -31.36 22.66 -30 23 C-30 23.66 -30 24.32 -30 25 C-25.94392005 25.98329211 -22.16937798 26.23600253 -18 26 C-17.34 25.34 -16.68 24.68 -16 24 C-15.01 24 -14.02 24 -13 24 C-13 23.34 -13 22.68 -13 22 C-12.34 22 -11.68 22 -11 22 C-10.75378906 21.17113281 -10.50757813 20.34226563 -10.25390625 19.48828125 C-8.81706849 15.49109709 -6.96675795 11.90841127 -4.9375 8.1875 C-4.39125977 7.1675293 -4.39125977 7.1675293 -3.83398438 6.12695312 C-1.1489279 1.1489279 -1.1489279 1.1489279 0 0 Z " fill="#1D697B" transform="translate(77,170)"/>
<path d="M0 0 C5.03985731 0.44469329 7.37634988 2.71343362 11 6 C10.71624756 9.40502926 10.23082747 10.76257746 7.8125 13.25 C4.77650944 15.13906079 2.53276352 15.67137084 -1 16 C-2.1875 14.3125 -2.1875 14.3125 -3 12 C-2.00664799 10.32936253 -1.00568242 8.66324401 0 7 C0.25099867 3.29106092 0.25099867 3.29106092 0 0 Z " fill="#2D2D3D" transform="translate(139,138)"/>
<path d="M0 0 C0 0.66 0 1.32 0 2 C-2.5 3.625 -2.5 3.625 -5 5 C-3.81575674 6.41577477 -3.81575674 6.41577477 -0.4375 6.0625 C1.2640625 6.0315625 1.2640625 6.0315625 3 6 C2.443125 6.268125 1.88625 6.53625 1.3125 6.8125 C0.1678125 7.4003125 0.1678125 7.4003125 -1 8 C-1.825 8.350625 -2.65 8.70125 -3.5 9.0625 C-7.24466995 11.96461921 -8.36272136 15.64791746 -10 20 C-10.30164062 20.78117187 -10.60328125 21.56234375 -10.9140625 22.3671875 C-11.62656406 24.23833645 -12.3157576 26.11833339 -13 28 C-15.41816448 25.58183552 -15.34788063 24.83173174 -15.4375 21.5 C-15.2686332 14.62612806 -12.95475225 8.83611019 -7.95703125 4.0390625 C-2.75176056 0 -2.75176056 0 0 0 Z " fill="#433D4C" transform="translate(55,60)"/>
<path d="M0 0 C-0.18368563 4.04108383 -0.54402916 5.57739288 -3.5625 8.375 C-7.99174678 10.46882575 -10.139091 10.61725829 -15 10 C-18.44312714 7.8755173 -19.71617547 6.85147359 -21 3 C-16.74949992 1.86653331 -12.75686313 1.99241667 -8.40234375 2.16015625 C-5.22511615 1.94834108 -3.09998033 0 0 0 Z " fill="#383544" transform="translate(135,189)"/>
<path d="M0 0 C6.00355581 5.16972862 8.84737638 11.27443348 9.875 19.125 C10.18521625 23.53696447 9.52663356 26.86910919 8 31 C7.34 30.67 6.68 30.34 6 30 C5.10425212 26.73691845 4.36857479 23.4763639 3.67578125 20.16601562 C2.58593525 15.36803506 0.97505288 12.01692363 -2 8 C-2.33 7.34 -2.66 6.68 -3 6 C0.31726155 6.57194165 1.72635823 7.57000464 4 10 C3.71125 9.44570313 3.4225 8.89140625 3.125 8.3203125 C2.568125 7.23363281 2.568125 7.23363281 2 6.125 C1.62875 5.40570313 1.2575 4.68640625 0.875 3.9453125 C0 2 0 2 0 0 Z " fill="#3A7C8E" transform="translate(132,27)"/>
<path d="M0 0 C2.375 0.1875 2.375 0.1875 5 1 C6.3125 3.5625 6.3125 3.5625 7 6 C-0.27616106 12.82140099 -8.59644697 12.28210659 -18 12 C-18 11.01 -18 10.02 -18 9 C-17.10796875 8.87882813 -16.2159375 8.75765625 -15.296875 8.6328125 C-14.12640625 8.46523437 -12.9559375 8.29765625 -11.75 8.125 C-10.58984375 7.96257812 -9.4296875 7.80015625 -8.234375 7.6328125 C-5.39706381 7.0776864 -3.38433087 6.60483808 -1 5 C-0.18828772 2.44480079 -0.18828772 2.44480079 0 0 Z " fill="#353342" transform="translate(134,174)"/>
<path d="M0 0 C5.17888169 5.17888169 7.91089976 11.10409617 8.375 18.375 C7.385 18.705 6.395 19.035 5.375 19.375 C5.07207031 18.78332031 4.76914063 18.19164062 4.45703125 17.58203125 C1.89842192 12.75610043 -0.53167799 9.00051378 -4.625 5.375 C-2.15 5.87 -2.15 5.87 0.375 6.375 C0.15966339 3.36028743 -0.68351477 2.31481338 -2.8125 0.125 C-8.02643324 -3.07186418 -14.79133812 -2.34214047 -20.625 -1.625 C-23.25017525 -0.56395356 -24.54302793 0.41549687 -26.625 2.375 C-27.285 2.045 -27.945 1.715 -28.625 1.375 C-27.54750558 0.55477251 -26.46270492 -0.25586169 -25.375 -1.0625 C-24.77171875 -1.51496094 -24.1684375 -1.96742187 -23.546875 -2.43359375 C-15.7498981 -7.26708553 -7.18075273 -4.44522788 0 0 Z " fill="#437784" transform="translate(117.625,125.625)"/>
<path d="M0 0 C2.19921875 0.8515625 2.19921875 0.8515625 5.19921875 2.8515625 C5.19921875 3.5115625 5.19921875 4.1715625 5.19921875 4.8515625 C13.54147876 7.24150726 21.53381648 8.4462453 30.19921875 8.8515625 C30.19921875 9.5115625 30.19921875 10.1715625 30.19921875 10.8515625 C18.86552594 11.03601681 6.77937989 10.71860273 -2.1796875 2.73046875 C-5.57429247 0.2970783 -8.57669288 0.18654331 -12.61328125 0.1015625 C-13.30615234 0.07191406 -13.99902344 0.04226562 -14.71289062 0.01171875 C-16.40824338 -0.05843378 -18.10451437 -0.10576412 -19.80078125 -0.1484375 C-13.12478365 -3.83935247 -6.9191109 -2.15068125 0 0 Z " fill="#267E97" transform="translate(54.80078125,32.1484375)"/>
<path d="M0 0 C1.9061167 0.94462421 3.75189456 2.00922455 5.58203125 3.09375 C5.58203125 3.42375 5.58203125 3.75375 5.58203125 4.09375 C-6.79296875 4.58875 -6.79296875 4.58875 -19.41796875 5.09375 C-19.41796875 4.43375 -19.41796875 3.77375 -19.41796875 3.09375 C-13.23452644 -1.20777509 -7.29163713 -2.73289146 0 0 Z " fill="#13849A" transform="translate(110.41796875,124.90625)"/>
<path d="M0 0 C1.18771723 3.42943519 0.80226223 5.37784675 -0.4375 8.75 C-0.86869141 9.94882813 -0.86869141 9.94882813 -1.30859375 11.171875 C-1.53675781 11.77515625 -1.76492187 12.3784375 -2 13 C-2.66 13 -3.32 13 -4 13 C-4.0928125 14.299375 -4.0928125 14.299375 -4.1875 15.625 C-5.43780327 20.81856745 -8.33553852 23.81109894 -12.625 26.875 C-17.22253343 29.05277899 -22.32574307 27.48986823 -27 26 C-30.0625 23.875 -30.0625 23.875 -32 22 C-31.67 21.34 -31.34 20.68 -31 20 C-30.401875 20.639375 -29.80375 21.27875 -29.1875 21.9375 C-24.63089114 24.88589397 -20.37620888 25.32320317 -15 25 C-11.36980915 23.66518742 -11.36980915 23.66518742 -9 21 C-8.30707752 19.00894428 -7.64550389 17.00693028 -7 15 C-5.85971372 12.34253281 -4.6193434 9.73508615 -3.375 7.125 C-3.05015625 6.43664062 -2.7253125 5.74828125 -2.390625 5.0390625 C-1.59676528 3.35794781 -0.79880442 1.67877079 0 0 Z " fill="#127792" transform="translate(74,151)"/>
<path d="M0 0 C0.33 0 0.66 0 1 0 C1.17015625 0.845625 1.3403125 1.69125 1.515625 2.5625 C3.17905581 10.34877188 5.33931593 16.60408719 9.4375 23.375 C12.94989993 29.27583188 16.08558237 35.38655729 18 42 C17.34 42 16.68 42 16 42 C10.56048029 32.91572597 5.87869956 23.87743367 2 14 C1.64679687 13.10796875 1.29359375 12.2159375 0.9296875 11.296875 C-0.57754968 7.19610358 -1.52662885 4.30231766 0 0 Z " fill="#187384" transform="translate(9,130)"/>
<path d="M0 0 C3.25683672 1.46747003 5.86265901 3.10596064 8 6 C8 7.32 8 8.64 8 10 C7.01 9.67 6.02 9.34 5 9 C2.54387046 8.87860509 0.08409804 8.82457808 -2.375 8.8125 C-3.68210937 8.79832031 -4.98921875 8.78414062 -6.3359375 8.76953125 C-9.73798963 8.9835196 -11.96683747 9.51855189 -15 11 C-15 10.34 -15 9.68 -15 9 C-14.34 9 -13.68 9 -13 9 C-13 8.34 -13 7.68 -13 7 C-9.53287889 5.84429296 -6.4585044 5.67164707 -2.8125 5.4375 C-1.54019531 5.35371094 -0.26789063 5.26992187 1.04296875 5.18359375 C2.01878906 5.12300781 2.99460937 5.06242188 4 5 C-1.67964821 2.03670528 -6.60079742 1.14315762 -13 2 C-15.90630368 3.4230984 -15.90630368 3.4230984 -18 5 C-18.66 4.67 -19.32 4.34 -20 4 C-14.31375986 -1.35175543 -7.44920187 -1.13431029 0 0 Z " fill="#267C8C" transform="translate(111,123)"/>
<path d="M0 0 C0.66 0 1.32 0 2 0 C0.78107903 2.45021676 -0.45476214 4.89070654 -1.69921875 7.328125 C-6.48487329 16.74474625 -10.86435469 26.28123353 -15 36 C-15.33 36 -15.66 36 -16 36 C-16.31094762 31.22271389 -15.53300984 28.4317507 -13.25 24.25 C-11.24434179 20.46361721 -9.46604317 16.77540667 -8 12.75 C-6.14950441 7.94493161 -3.61692382 3.69959636 0 0 Z " fill="#1A6676" transform="translate(94,134)"/>
<path d="M0 0 C-8.05817445 3.61795588 -18.18995033 7.93668322 -27 5 C-27 4.34 -27 3.68 -27 3 C-25.78376953 2.81824219 -25.78376953 2.81824219 -24.54296875 2.6328125 C-18.07423765 1.65384272 -11.65042811 0.59111203 -5.2421875 -0.73046875 C-3 -1 -3 -1 0 0 Z " fill="#514954" transform="translate(133,168)"/>
<path d="M0 0 C0.33 0 0.66 0 1 0 C1.05804281 4.41661151 1.09361104 8.83312496 1.125 13.25 C1.15013672 15.13138672 1.15013672 15.13138672 1.17578125 17.05078125 C1.18222656 18.25605469 1.18867188 19.46132812 1.1953125 20.703125 C1.20578613 21.81333008 1.21625977 22.92353516 1.22705078 24.06738281 C1.00468334 26.93950942 0.49281575 28.57223735 -1 31 C-3.03790628 26.92418744 -2.18488808 21.66694034 -2.1875 17.1875 C-2.19974609 16.09373047 -2.21199219 14.99996094 -2.22460938 13.87304688 C-2.22654297 12.81537109 -2.22847656 11.75769531 -2.23046875 10.66796875 C-2.23457764 9.70141357 -2.23868652 8.7348584 -2.24291992 7.73901367 C-1.98415725 4.82136704 -1.21710403 2.64977145 0 0 Z " fill="#1A7088" transform="translate(16,62)"/>
<path d="M0 0 C4.83256305 0.41421969 6.82679218 2.46413986 10 6 C9.34 6.66 8.68 7.32 8 8 C8 8.99 8 9.98 8 11 C6.68 11.33 5.36 11.66 4 12 C3.67 10.02 3.34 8.04 3 6 C2.01 6.495 2.01 6.495 1 7 C0.67 4.69 0.34 2.38 0 0 Z " fill="#363646" transform="translate(139,138)"/>
<path d="M0 0 C0 0.33 0 0.66 0 1 C0.99 1 1.98 1 3 1 C3 1.66 3 2.32 3 3 C-2.96674616 4.32594359 -8.92583615 4.0884587 -15 4 C-15 3.01 -15 2.02 -15 1 C-12.87630763 0.63807496 -10.7509887 0.28568253 -8.625 -0.0625 C-6.84996094 -0.35833984 -6.84996094 -0.35833984 -5.0390625 -0.66015625 C-2 -1 -2 -1 0 0 Z " fill="#52515B" transform="translate(131,182)"/>
<path d="M0 0 C0.66 0.33 1.32 0.66 2 1 C-5.2 7 -5.2 7 -10 7 C-10.66 8.65 -11.32 10.3 -12 12 C-12.33 11.34 -12.66 10.68 -13 10 C-14.97888961 9.27306096 -16.97954558 8.60183749 -19 8 C-19 7.34 -19 6.68 -19 6 C-17.948125 5.85304688 -17.948125 5.85304688 -16.875 5.703125 C-12.03071499 4.93962356 -7.79326144 4.13075977 -3.4375 1.8125 C-2.303125 1.214375 -1.16875 0.61625 0 0 Z " fill="#444455" transform="translate(108,59)"/>
<path d="M0 0 C0.47050781 0.40992188 0.94101562 0.81984375 1.42578125 1.2421875 C2.04839844 1.78101563 2.67101563 2.31984375 3.3125 2.875 C4.23482422 3.67550781 4.23482422 3.67550781 5.17578125 4.4921875 C8.82098482 7.50513949 11.16333283 8.42866637 15.93359375 8.33203125 C19.2325622 7.80195125 21.41978824 6.02730924 24 4 C24.66 3.67 25.32 3.34 26 3 C25.77592987 6.13698187 24.91447909 7.08327036 22.625 9.3125 C17.52188409 11.68808844 13.40181006 11.38857822 8 10 C4.42064593 8.15007641 2.40728346 5.83307981 0.625 2.1875 C0.41875 1.465625 0.2125 0.74375 0 0 Z " fill="#23687B" transform="translate(40,166)"/>
<path d="M0 0 C2.36557373 2.13300328 3.62967528 3.95949399 4.75 6.9375 C5.01296875 7.60652344 5.2759375 8.27554688 5.546875 8.96484375 C6.07046274 11.31647491 5.74954377 12.73617523 5 15 C4.34 15 3.68 15 3 15 C1.35 11.7 -0.3 8.4 -2 5 C-1.34 4.67 -0.68 4.34 0 4 C0 2.68 0 1.36 0 0 Z " fill="#336C79" transform="translate(120,130)"/>
<path d="M0 0 C0.97582031 0.00902344 1.95164062 0.01804688 2.95703125 0.02734375 C3.69308594 0.03894531 4.42914063 0.05054688 5.1875 0.0625 C3.2075 1.0525 3.2075 1.0525 1.1875 2.0625 C1.1875 2.7225 1.1875 3.3825 1.1875 4.0625 C-2.7725 4.0625 -6.7325 4.0625 -10.8125 4.0625 C-10.8125 3.0725 -10.8125 2.0825 -10.8125 1.0625 C-7.13862505 0.20951624 -3.7677607 -0.04539471 0 0 Z " fill="#635F68" transform="translate(114.8125,152.9375)"/>
<path d="M0 0 C0.33 0.99 0.66 1.98 1 3 C0.01 4.485 0.01 4.485 -1 6 C-1.99 6 -2.98 6 -4 6 C-4.33 7.32 -4.66 8.64 -5 10 C-6.32 10 -7.64 10 -9 10 C-8.4375 6.6875 -8.4375 6.6875 -7 3 C-4.70531217 1.4631421 -2.67327763 0.8415874 0 0 Z " fill="#0C88A0" transform="translate(92,131)"/>
<path d="M0 0 C0.33 0.99 0.66 1.98 1 3 C-0.29296875 4.9453125 -0.29296875 4.9453125 -2.1875 7.125 C-5.36573588 10.97932185 -7.35798277 14.57640601 -9.078125 19.25 C-10 21 -10 21 -13 22 C-11.62433955 17.28854116 -9.65654947 13.47167429 -7.0625 9.3125 C-6.37285156 8.19488281 -5.68320313 7.07726562 -4.97265625 5.92578125 C-3.42622114 3.63215769 -2.05208754 1.82050399 0 0 Z " fill="#266B7E" transform="translate(88,128)"/>
<path d="M0 0 C1.85772162 0.08984301 3.71247985 0.24611861 5.5625 0.4375 C7.08037109 0.59025391 7.08037109 0.59025391 8.62890625 0.74609375 C9.80259766 0.87177734 9.80259766 0.87177734 11 1 C11 1.66 11 2.32 11 3 C9.7934375 3.433125 9.7934375 3.433125 8.5625 3.875 C5.8673532 4.73262568 5.8673532 4.73262568 5 7 C2.37812506 5.95125002 1.20628639 5.35068687 -0.25 2.875 C-0.4975 2.25625 -0.745 1.6375 -1 1 C-0.67 0.67 -0.34 0.34 0 0 Z " fill="#433F4C" transform="translate(115,191)"/>
<path d="M0 0 C1.77503906 0.03480469 1.77503906 0.03480469 3.5859375 0.0703125 C5.36871094 0.09738281 5.36871094 0.09738281 7.1875 0.125 C8.10273437 0.14820312 9.01796875 0.17140625 9.9609375 0.1953125 C11.20640155 2.68624061 10.7376953 3.60611983 9.9609375 6.1953125 C9.3421875 5.9065625 8.7234375 5.6178125 8.0859375 5.3203125 C3.80227626 3.77819445 -0.56834462 3.01132703 -5.0390625 2.1953125 C-3.0390625 0.1953125 -3.0390625 0.1953125 0 0 Z " fill="#404251" transform="translate(64.0390625,64.8046875)"/>
<path d="M0 0 C0.33 0 0.66 0 1 0 C1.93213141 6.26039609 2.20927172 11.02197063 0 17 C-0.66 16.67 -1.32 16.34 -2 16 C-3.29411765 8.58823529 -3.29411765 8.58823529 -2 6 C-1.34 6 -0.68 6 0 6 C0 4.02 0 2.04 0 0 Z " fill="#3C6878" transform="translate(140,41)"/>
<path d="M0 0 C1.13343363 3.4003009 1.16050072 5.59586457 0 9 C-1.80352975 11.83185812 -3.70396621 14.54561905 -6 17 C-6.66 17 -7.32 17 -8 17 C-7.01 13.7 -6.02 10.4 -5 7 C-4.01 8.485 -4.01 8.485 -3 10 C-2.86722656 9.36191406 -2.73445312 8.72382813 -2.59765625 8.06640625 C-2.42105469 7.24011719 -2.24445313 6.41382813 -2.0625 5.5625 C-1.88847656 4.73878906 -1.71445313 3.91507813 -1.53515625 3.06640625 C-1 1 -1 1 0 0 Z " fill="#393744" transform="translate(135,128)"/>
<path d="M0 0 C0 0.66 0 1.32 0 2 C-3.96 2.66 -7.92 3.32 -12 4 C-12 4.66 -12 5.32 -12 6 C-10.68 5.67 -9.36 5.34 -8 5 C-8 5.66 -8 6.32 -8 7 C-10.97 7 -13.94 7 -17 7 C-17 5 -17 5 -15 3 C-15 2.67 -15 2.34 -15 2 C-12.87528825 1.6648342 -10.75022095 1.33192171 -8.625 1 C-7.44164063 0.814375 -6.25828125 0.62875 -5.0390625 0.4375 C-2 0 -2 0 0 0 Z " fill="#55505A" transform="translate(133,150)"/>
<path d="M0 0 C0 0.66 0 1.32 0 2 C-2.5 3.625 -2.5 3.625 -5 5 C-3.81575674 6.41577477 -3.81575674 6.41577477 -0.4375 6.0625 C1.2640625 6.0315625 1.2640625 6.0315625 3 6 C1.67661368 6.68620031 0.34050052 7.34786461 -1 8 C-1.804375 8.391875 -2.60875 8.78375 -3.4375 9.1875 C-6.38988863 10.12362322 -8.05809572 9.84054408 -11 9 C-8.81638059 4.63276119 -5.32701042 0 0 0 Z " fill="#494656" transform="translate(55,60)"/>
<path d="M0 0 C0.71994141 -0.01611328 1.43988281 -0.03222656 2.18164062 -0.04882812 C7.45641678 -0.05372578 7.45641678 -0.05372578 9.93359375 1.83203125 C10.26488281 2.32058594 10.59617187 2.80914062 10.9375 3.3125 C10.39738281 3.15394531 9.85726562 2.99539062 9.30078125 2.83203125 C3.16255063 1.4826351 -3.75338098 1.09525934 -9.3125 4.3125 C-10.67375 5.3025 -10.67375 5.3025 -12.0625 6.3125 C-12.0625 4.9925 -12.0625 3.6725 -12.0625 2.3125 C-8.26738986 -0.17463484 -4.37926066 -0.01970864 0 0 Z " fill="#2F7387" transform="translate(42.0625,31.6875)"/>
<path d="M0 0 C5.99291003 0.41330414 9.25036599 1.31903365 14 5 C13.34 6.32 12.68 7.64 12 9 C11.01 8.67 10.02 8.34 9 8 C9.33 7.01 9.66 6.02 10 5 C8.68 4.67 7.36 4.34 6 4 C6 3.34 6 2.68 6 2 C4.02 2 2.04 2 0 2 C0 1.34 0 0.68 0 0 Z " fill="#338095" transform="translate(118,21)"/>
<path d="M0 0 C0 0.66 0 1.32 0 2 C-0.88042969 2.12117188 -1.76085937 2.24234375 -2.66796875 2.3671875 C-3.82941406 2.53476562 -4.99085937 2.70234375 -6.1875 2.875 C-7.91033203 3.11863281 -7.91033203 3.11863281 -9.66796875 3.3671875 C-12.96288614 3.87606551 -12.96288614 3.87606551 -15.73828125 5.1328125 C-18 6 -18 6 -21 5 C-13.90564695 1.93101427 -7.8211271 0 0 0 Z " fill="#347787" transform="translate(117,20)"/>
<path d="M0 0 C0 0.66 0 1.32 0 2 C-3.60993172 3.13480527 -6.9842327 3.10015767 -10.75 3.0625 C-11.92046875 3.05347656 -13.0909375 3.04445312 -14.296875 3.03515625 C-15.18890625 3.02355469 -16.0809375 3.01195312 -17 3 C-16.67 2.34 -16.34 1.68 -16 1 C-10.74469407 -0.34751434 -5.38420602 -0.09576651 0 0 Z " fill="#433B49" transform="translate(136,170)"/>
<path d="M0 0 C4.10807555 3.77498834 7.69650341 7.35144311 8.1796875 13.16015625 C8.18655707 15.10767997 8.10060013 17.05506415 8 19 C7.67 19 7.34 19 7 19 C6.773125 18.05125 6.54625 17.1025 6.3125 16.125 C5.11182678 11.83938536 3.10040658 8.05654768 1.0234375 4.13671875 C0 2 0 2 0 0 Z " fill="#327988" transform="translate(132,27)"/>
<path d="M0 0 C0.33 0.66 0.66 1.32 1 2 C-0.9626228 4.04795423 -2.4277307 4.94976638 -5.26953125 5.19921875 C-7.51954383 5.18858877 -9.75385562 5.12958525 -12 5 C-12 4.34 -12 3.68 -12 3 C-8.04 2.01 -4.08 1.02 0 0 Z " fill="#39323E" transform="translate(133,151)"/>
<path d="M0 0 C0.33 0.66 0.66 1.32 1 2 C-0.82697814 5.65395627 -3.13974821 8.13974821 -6 11 C-7.04349839 12.63978318 -8.05607981 14.30094366 -9 16 C-9.33 15.34 -9.66 14.68 -10 14 C-7.7085099 8.44586447 -4.47034438 3.95944788 0 0 Z " fill="#277385" transform="translate(19,22)"/>
<path d="M0 0 C1.18771723 3.42943519 0.80226223 5.37784675 -0.4375 8.75 C-0.72496094 9.54921875 -1.01242188 10.3484375 -1.30859375 11.171875 C-1.53675781 11.77515625 -1.76492187 12.3784375 -2 13 C-2.66 13 -3.32 13 -4 13 C-4.33 13.99 -4.66 14.98 -5 16 C-6.39211215 11.82366356 -4.9535579 10.21039485 -3.0625 6.3125 C-2.49660156 5.13300781 -1.93070312 3.95351562 -1.34765625 2.73828125 C-0.90292969 1.83464844 -0.45820312 0.93101562 0 0 Z " fill="#21677C" transform="translate(74,151)"/>
<path d="M0 0 C1.48828125 1.08203125 1.48828125 1.08203125 3 3 C3.29296875 6.13671875 3.29296875 6.13671875 3.1875 9.6875 C3.16042969 10.86699219 3.13335937 12.04648438 3.10546875 13.26171875 C3.07066406 14.16535156 3.03585938 15.06898437 3 16 C0.2066535 10.60634314 -0.11908784 6.07347984 0 0 Z " fill="#2D2A3D" transform="translate(145,77)"/>
<path d="M0 0 C0.66 0.33 1.32 0.66 2 1 C1.34 5.29 0.68 9.58 0 14 C-2 12 -2 12 -2.1953125 10.0546875 C-2.13020833 8.03645833 -2.06510417 6.01822917 -2 4 C-1.34 4 -0.68 4 0 4 C0 2.68 0 1.36 0 0 Z " fill="#373140" transform="translate(42,74)"/>
<path d="M0 0 C3.33511388 2.9901021 5.21521119 5.89498574 7 10 C7 10.66 7 11.32 7 12 C6.34 12 5.68 12 5 12 C3.7109375 10.390625 3.7109375 10.390625 2.375 8.25 C1.92898437 7.55390625 1.48296875 6.8578125 1.0234375 6.140625 C0 4 0 4 0 0 Z " fill="#106B86" transform="translate(20,160)"/>
<path d="M0 0 C2.375 1.0625 2.375 1.0625 5 3 C6.3125 6.6875 6.3125 6.6875 7 10 C5.25 10.75 5.25 10.75 3 11 C0.75 9.0625 0.75 9.0625 -1 7 C1.475 7.495 1.475 7.495 4 8 C3.72382467 6.05925139 3.72382467 6.05925139 3 4 C2.01 3.34 1.02 2.68 0 2 C0 1.34 0 0.68 0 0 Z " fill="#327785" transform="translate(114,124)"/>
<path d="M0 0 C3 1 3 1 4.6875 3.8125 C6 7 6 7 6 11 C5.34 11 4.68 11 4 11 C3.32591692 9.73308493 2.66099503 8.46129251 2 7.1875 C1.62875 6.47980469 1.2575 5.77210937 0.875 5.04296875 C0 3 0 3 0 0 Z " fill="#2E2E3D" transform="translate(140,65)"/>
<path d="M0 0 C0.66 0 1.32 0 2 0 C1.6875 2.375 1.6875 2.375 1 5 C-2.22791555 7.1519437 -3.28400809 7.20086443 -7 7 C-6.67 6.01 -6.34 5.02 -6 4 C-4.35 3.67 -2.7 3.34 -1 3 C-0.67 2.01 -0.34 1.02 0 0 Z " fill="#292735" transform="translate(132,191)"/>
<path d="M0 0 C0.66 0 1.32 0 2 0 C1.91253716 1.43861294 1.80434652 2.87597508 1.6875 4.3125 C1.62949219 5.11300781 1.57148438 5.91351563 1.51171875 6.73828125 C0.91793306 9.36272334 0.04219706 10.30820672 -2 12 C-2.17835515 7.45194365 -1.99785435 4.1205746 0 0 Z " fill="#262331" transform="translate(133,127)"/>
<path d="M0 0 C1 3 1 3 0.22265625 4.82421875 C-0.8515625 6.54947917 -1.92578125 8.27473958 -3 10 C-3.66 9.67 -4.32 9.34 -5 9 C-4.67 7.02 -4.34 5.04 -4 3 C-2.68 2.67 -1.36 2.34 0 2 C0 1.34 0 0.68 0 0 Z " fill="#097F94" transform="translate(73,174)"/>
<path d="M0 0 C0.33 0.99 0.66 1.98 1 3 C0 4 0 4 -3.0625 4.0625 C-4.031875 4.041875 -5.00125 4.02125 -6 4 C-6 3.01 -6 2.02 -6 1 C-4.02 0.67 -2.04 0.34 0 0 Z " fill="#696571" transform="translate(122,182)"/>
<path d="M0 0 C0.99 0 1.98 0 3 0 C2.25 4.75 2.25 4.75 0 7 C-0.99 7 -1.98 7 -3 7 C-3 6.34 -3 5.68 -3 5 C-2.01 5 -1.02 5 0 5 C-0.2784375 4.0409375 -0.2784375 4.0409375 -0.5625 3.0625 C-0.706875 2.381875 -0.85125 1.70125 -1 1 C-0.67 0.67 -0.34 0.34 0 0 Z " fill="#282935" transform="translate(147,144)"/>
<path d="M0 0 C0 0.99 0 1.98 0 3 C-2.31 3.33 -4.62 3.66 -7 4 C-7 3.01 -7 2.02 -7 1 C-2.25 0 -2.25 0 0 0 Z " fill="#706D74" transform="translate(111,153)"/>
<path d="M0 0 C4.29 1.32 8.58 2.64 13 4 C12.67 4.66 12.34 5.32 12 6 C7.61110675 5.33501617 4.0188515 3.81242323 0 2 C0 1.34 0 0.68 0 0 Z " fill="#4A4A5A" transform="translate(75,61)"/>
<path d="M0 0 C-0.33 1.32 -0.66 2.64 -1 4 C-3.97 3.505 -3.97 3.505 -7 3 C-7 2.34 -7 1.68 -7 1 C-4 0 -4 0 0 0 Z " fill="#6D656D" transform="translate(113,170)"/>
<path d="M0 0 C0.185625 0.9590625 0.185625 0.9590625 0.375 1.9375 C0.684375 2.9584375 0.684375 2.9584375 1 4 C1.66 4.33 2.32 4.66 3 5 C1.35 5.33 -0.3 5.66 -2 6 C-2.33 4.68 -2.66 3.36 -3 2 C-2.01 1.34 -1.02 0.68 0 0 Z " fill="#353746" transform="translate(104,83)"/>
<path d="M0 0 C6.52307692 -0.36923077 6.52307692 -0.36923077 8.9375 1.5 C9.288125 1.995 9.63875 2.49 10 3 C9.01 3.33 8.02 3.66 7 4 C7 3.34 7 2.68 7 2 C4.69 1.67 2.38 1.34 0 1 C0 0.67 0 0.34 0 0 Z " fill="#575460" transform="translate(115,86)"/>
<path d="M0 0 C0.33 1.32 0.66 2.64 1 4 C1.66 4 2.32 4 3 4 C2.67 6.31 2.34 8.62 2 11 C0 9 0 9 -0.1953125 6.8359375 C-0.17210937 6.02382812 -0.14890625 5.21171875 -0.125 4.375 C-0.10695313 3.55773437 -0.08890625 2.74046875 -0.0703125 1.8984375 C-0.04710937 1.27195312 -0.02390625 0.64546875 0 0 Z " fill="#0F798C" transform="translate(14,82)"/>
<path d="M0 0 C2.0625 0.4375 2.0625 0.4375 4 1 C3.34 1.66 2.68 2.32 2 3 C2.99 3.66 3.98 4.32 5 5 C5 5.66 5 6.32 5 7 C2.37812506 5.95125002 1.20628639 5.35068687 -0.25 2.875 C-0.4975 2.25625 -0.745 1.6375 -1 1 C-0.67 0.67 -0.34 0.34 0 0 Z " fill="#54525C" transform="translate(115,191)"/>
<path d="M0 0 C0 0.66 0 1.32 0 2 C1.32 1.67 2.64 1.34 4 1 C4 1.66 4 2.32 4 3 C1.03 3 -1.94 3 -5 3 C-5 2.34 -5 1.68 -5 1 C-3 0 -3 0 0 0 Z " fill="#47414C" transform="translate(121,154)"/>
<path d="M0 0 C1.42944945 2.35438733 2.08661261 3.48032433 1.625 6.25 C1.41875 6.8275 1.2125 7.405 1 8 C0.34 8 -0.32 8 -1 8 C-1.125 2.25 -1.125 2.25 0 0 Z " fill="#4C6069" transform="translate(124,137)"/>
<path d="M0 0 C0.66 0.99 1.32 1.98 2 3 C0.02 5.97 0.02 5.97 -2 9 C-3 6 -3 6 -1.5625 2.8125 C-1.046875 1.884375 -0.53125 0.95625 0 0 Z " fill="#25202F" transform="translate(141,117)"/>
<path d="M0 0 C2.75383923 1.37691962 3.51483101 3.36720042 5 6 C2.11562221 4.70700306 0.12780579 3.34058637 -2 1 C-1.34 0.67 -0.68 0.34 0 0 Z " fill="#3E3E4D" transform="translate(80,73)"/>
<path d="M0 0 C0.33 0.66 0.66 1.32 1 2 C0.67 2.66 0.34 3.32 0 4 C0.99 4.33 1.98 4.66 3 5 C1.35 5.33 -0.3 5.66 -2 6 C-2 5.34 -2 4.68 -2 4 C-2.66 3.67 -3.32 3.34 -4 3 C-3.34 3 -2.68 3 -2 3 C-2 2.34 -2 1.68 -2 1 C-1.34 0.67 -0.68 0.34 0 0 Z " fill="#3D3C4C" transform="translate(110,65)"/>
</svg>
